<?xml version="1.0" encoding="UTF-8"?>
<svg id="Layer_1" xmlns="http://www.w3.org/2000/svg" xmlns:xlink="http://www.w3.org/1999/xlink" version="1.1" viewBox="0 0 1000 200.5">
  <defs>
    <style>
      .st0 {
        fill: url(#linear-gradient);
      }

      .st1 {
        fill: #01102b;
      }
    </style>
    <linearGradient id="linear-gradient" x1="0" y1="111.5" x2="153.8" y2="111.5" gradientTransform="translate(0 202) scale(1 -1)" gradientUnits="userSpaceOnUse">
      <stop offset="0" stop-color="#0089ff"/>
      <stop offset="1" stop-color="#007cff"/>
    </linearGradient>
  </defs>
  <g>
    <path class="st1" d="M731.6,9.6c-7.3,0-13.2,5.9-13.2,13.2s5.9,13.2,13.2,13.2h.4c7.3,0,13.2-5.9,13.2-13.2s-5.9-13.2-13.2-13.2c0,0-.4,0-.4,0Z"/>
    <path class="st1" d="M203.4,117h18.8c.5,0,1,.4,1.1.9,1.9,14.1,10.3,27.4,26.4,27.4h21.5c14.2,0,23.8-9.8,23.8-23.1s-8-21.1-20.4-22.4l-32.1-4.3c-24-3.2-36.4-19-36.4-40.5s16.2-43,52-43,52.9,16.3,54.6,47.2c0,.6-.5,1.2-1.1,1.2h-18.7c-.6,0-1-.4-1.1-1-1-13.7-9-27.8-24.9-27.8h-19c-13.3,0-21.8,8.9-21.8,21.8s9.8,21.8,21.5,23.3l31.6,4.1c24.7,3.4,35.9,18.5,35.9,40.1s-15.3,44.2-55.4,44.2-56.5-15.9-57.6-46.7c0-.6.5-1.1,1.1-1.1h0Z"/>
    <path class="st1" d="M374.9,161.6h-5.4c-.9,0-1.7-.6-2-1.4l-39.2-105.9c-.3-.7.3-1.5,1-1.5h18.3c.5,0,.9.3,1,.7l32.7,89.7h4.6l33.6-89.7c.2-.4.6-.7,1-.7h17.1c.8,0,1.3.8,1,1.5l-54.4,145.5c-.2.4-.6.7-1,.7h-17.4c-.8,0-1.3-.8-1-1.5l12.7-33.7c.7-1.8-.7-3.8-2.6-3.8h0Z"/>
    <path class="st1" d="M457.9,52.9h17.1c.6,0,1.1.5,1.1,1.1v6.5c0,2.6,3.1,3.8,4.9,1.9,7.7-8.5,18.6-12.7,33.1-12.7,28.6,0,44,16.5,44,44.4v66.4c0,.6-.5,1.1-1.1,1.1h-17.5c-.6,0-1.1-.5-1.1-1.1v-63.7c0-17.6-9.2-28.2-21.8-28.2h-15.1c-13.3,0-24.7,11.9-24.7,28.2v63.7c0,.6-.5,1.1-1.1,1.1h-17.8c-.6,0-1.1-.5-1.1-1.1V53.9c0-.6.5-1.1,1.1-1.1h0Z"/>
    <path class="st1" d="M580.6,107.1c0-34.1,22.7-57.5,54.7-57.5s24.7,5.2,32.4,12c1.8,1.6,4.7.3,4.7-2.1V11.6c0-.6.5-1.1,1.1-1.1h17.5c.6,0,1.1.5,1.1,1.1v148.9c0,.6-.5,1.1-1.1,1.1h-17.1c-.6,0-1.1-.5-1.1-1.1v-6.9c0-2.4-3-3.8-4.7-2.1-8.3,8.1-19.9,13.3-33.7,13.3-32,0-53.8-23.4-53.8-57.7h0ZM672.4,117.6v-20.8c0-15.6-11-28.4-25.9-28.4h-16.5c-16.2,0-29.5,17.4-29.5,38.7s13.3,38.9,29.5,38.9h16.5c14.7,0,25.9-12.6,25.9-28.4Z"/>
    <path class="st1" d="M722.9,52.9h17.8c.6,0,1.1.5,1.1,1.1v106.6c0,.6-.5,1.1-1.1,1.1h-17.8c-.6,0-1.1-.5-1.1-1.1V53.9c0-.6.5-1.1,1.1-1.1Z"/>
    <path class="st1" d="M764.7,107.1c0-34.1,22.9-57.5,56.3-57.5s46.3,12.7,50.8,40.4c.1.7-.4,1.3-1.1,1.3h-17.5c-.5,0-1-.4-1.1-.9-2.8-15.4-14.3-22.2-25.5-22.2h-12.8c-15.8,0-29.3,17.4-29.3,38.9s13.5,39.1,29.3,39.1h12.8c11.2,0,22.9-7.1,25.5-22.4,0-.5.5-.9,1.1-.9h17.5c.7,0,1.2.6,1.1,1.3-4.5,27.7-25.4,40.6-50.8,40.6s-56.3-23.6-56.3-57.7Z"/>
    <path class="st1" d="M888.5,107.1c0-34.1,22.7-57.5,54.7-57.5s25.1,5.2,32.9,12c1.8,1.6,4.6.3,4.6-2.1v-5.6c0-.6.5-1.1,1.1-1.1h17.1c.6,0,1.1.5,1.1,1.1v106.6c0,.6-.5,1.1-1.1,1.1h-17.1c-.6,0-1.1-.5-1.1-1.1v-6.9c0-2.4-3-3.8-4.7-2.1-8.3,8.1-19.9,13.3-33.7,13.3-32,0-53.8-23.4-53.8-57.7h0ZM980.3,117.6v-20.8c0-15.6-11-28.4-25.9-28.4h-16.5c-16.2,0-29.5,17.4-29.5,38.7s13.3,38.9,29.5,38.9h16.5c14.7,0,25.9-12.6,25.9-28.4Z"/>
  </g>
  <path class="st0" d="M149.6,58c-4.1,9-13.4,14.5-23.2,14.5h0c-19.2,0-22.4,2.6-27.3,21l-1,3.8c-2.6,9.8-11.6,16.7-21.7,16.7h-1.6c-20,0-23.2,2.7-28.3,21.7l-.8,3c-2.6,9.8-11.5,16.6-21.6,16.7-12.2,0-21.9-10.3-21.9-22.4v-.3c0-13.1,10.6-23.8,23.8-23.8h0c20,0,23.2-2.7,28.3-21.7l.8-3c2.6-9.8,11.5-16.7,21.7-16.7h2.4c19.3,0,22.4-2.8,27.3-21,.3-1.1.6-2.2.8-3.2,2.6-9.8,11.2-17,21.4-17.2,16.4-.4,28,16.4,20.9,32.1h0ZM152.3,111.7c-.3-.8-.7-1.6-1.1-2.3-.3-.5-.6-1-.9-1.5-.1-.2-.3-.5-.5-.7-.2-.2-.3-.5-.5-.7-.5-.6-1-1.2-1.6-1.8-.2-.2-.4-.4-.7-.7,0,0,0,0-.1-.1-.2-.2-.5-.4-.7-.6-.2-.2-.4-.4-.7-.6,0,0-.2-.1-.3-.2-.2-.2-.5-.3-.7-.5s-.5-.3-.7-.5c-.1,0-.3-.2-.4-.2-.5-.3-.9-.6-1.4-.8-.2,0-.4-.2-.6-.3-.3-.1-.6-.3-.9-.4-.8-.3-1.7-.6-2.5-.8h0c-.4,0-.7-.2-1.1-.2-1.4-.3-2.8-.4-4.3-.4s-.4,0-.7,0c-.5,0-1.1,0-1.6,0-.3,0-.6,0-.9.1-.3,0-.6,0-.9.2-8,1.6-14.5,7.8-16.6,15.9l-.8,3-.5,1.7c-4,14.3-7.2,17.6-21.3,18-1.2,0-2.6,0-4,0h-2.3c-9.8.7-18.2,7.5-20.8,17.1-.5,1.9-.7,3.7-.7,5.5,0,11.3,9.2,21.1,21.2,21.1s18-6.4,20.4-15.7l.9-3.5.4-1.6c4.4-15.8,7.8-18.2,25.3-18.2s1.8,0,2.7-.1c.2,0,.5,0,.8,0,3.4-.5,6.7-1.6,9.5-3.4,1.9-1.2,3.6-2.6,5.1-4.3.3-.3.6-.7.8-1,.2-.2.3-.4.5-.6.2-.3.4-.5.6-.8,1.4-2.1,2.5-4.4,3.2-7,1.2-4.6.9-9.2-.7-13.2h0ZM146.9,103.9c.3.3.6.5.8.8M89.4,137.2h-4.7c-.5,0-1.1,0-1.6,0M1.5,69.3c.3.8.7,1.6,1.1,2.3.3.5.5,1,.9,1.5.2.2.3.5.5.7.2.2.3.5.5.7.5.6,1,1.2,1.6,1.8.2.2.4.4.7.7,0,0,0,0,.1.1.2.2.5.4.7.6.2.2.4.4.7.6,0,0,.2.1.3.2.2.2.5.3.7.5s.5.3.7.5c.1,0,.3.2.4.2.5.3.9.6,1.4.8.2,0,.4.2.6.3.3.1.6.3.9.4.8.3,1.7.6,2.5.8h0c.3,0,.7.2,1.1.2,1.4.3,2.8.4,4.3.4s.5,0,.7,0c.5,0,1,0,1.6,0,.3,0,.6,0,.9-.1.3,0,.6,0,.9-.2,8-1.6,14.5-7.8,16.6-15.9l.8-3,.5-1.7c4-14.3,7.2-17.6,21.3-18,1.2,0,2.6,0,4,0h2.3c9.8-.7,18.2-7.5,20.8-17.1.5-1.9.7-3.7.7-5.5C92.1,9.8,82.9,0,70.9,0s-18,6.4-20.5,15.7l-.9,3.5-.4,1.6c-4.4,15.8-7.8,18.2-25.3,18.2s-1.8,0-2.7.2c-.2,0-.5,0-.8,0-3.4.5-6.7,1.7-9.5,3.4-1.9,1.2-3.6,2.6-5.1,4.3-.3.3-.6.7-.8,1-.2.2-.3.4-.5.6-.2.3-.4.5-.5.8-1.4,2.1-2.5,4.4-3.2,7-1.2,4.6-.9,9.2.7,13.2h0ZM6.8,77.2c-.3-.3-.6-.5-.8-.8M64.3,43.8h4.7c.5,0,1.1,0,1.6,0"/>
</svg>
