<?xml version="1.0" encoding="UTF-8"?>
<svg xmlns="http://www.w3.org/2000/svg" xmlns:xlink="http://www.w3.org/1999/xlink" viewBox="-6 -6 167 177">
  <defs>
    <linearGradient id="linear-gradient" x1="0" y1="111.5" x2="153.8" y2="111.5" gradientTransform="translate(0 202) scale(1 -1)" gradientUnits="userSpaceOnUse">
      <stop offset="0" stop-color="#0089ff"/>
      <stop offset="1" stop-color="#007cff"/>
    </linearGradient>
  </defs>
  <path fill="url(#linear-gradient)" d="M149.6,58c-4.1,9-13.4,14.5-23.2,14.5h0c-19.2,0-22.4,2.6-27.3,21l-1,3.8c-2.6,9.8-11.6,16.7-21.7,16.7h-1.6c-20,0-23.2,2.7-28.3,21.7l-.8,3c-2.6,9.8-11.5,16.6-21.6,16.7-12.2,0-21.9-10.3-21.9-22.4v-.3c0-13.1,10.6-23.8,23.8-23.8h0c20,0,23.2-2.7,28.3-21.7l.8-3c2.6-9.8,11.5-16.7,21.7-16.7h2.4c19.3,0,22.4-2.8,27.3-21,.3-1.1.6-2.2.8-3.2,2.6-9.8,11.2-17,21.4-17.2,16.4-.4,28,16.4,20.9,32.1h0ZM152.3,111.7c-.3-.8-.7-1.6-1.1-2.3-.3-.5-.6-1-.9-1.5-.1-.2-.3-.5-.5-.7-.2-.2-.3-.5-.5-.7-.5-.6-1-1.2-1.6-1.8-.2-.2-.4-.4-.7-.7,0,0,0,0-.1-.1-.2-.2-.5-.4-.7-.6-.2-.2-.4-.4-.7-.6,0,0-.2-.1-.3-.2-.2-.2-.5-.3-.7-.5s-.5-.3-.7-.5c-.1,0-.3-.2-.4-.2-.5-.3-.9-.6-1.4-.8-.2,0-.4-.2-.6-.3-.3-.1-.6-.3-.9-.4-.8-.3-1.7-.6-2.5-.8h0c-.4,0-.7-.2-1.1-.2-1.4-.3-2.8-.4-4.3-.4s-.4,0-.7,0c-.5,0-1.1,0-1.6,0-.3,0-.6,0-.9.1-.3,0-.6,0-.9.2-8,1.6-14.5,7.8-16.6,15.9l-.8,3-.5,1.7c-4,14.3-7.2,17.6-21.3,18-1.2,0-2.6,0-4,0h-2.3c-9.8.7-18.2,7.5-20.8,17.1-.5,1.9-.7,3.7-.7,5.5,0,11.3,9.2,21.1,21.2,21.1s18-6.4,20.4-15.7l.9-3.5.4-1.6c4.4-15.8,7.8-18.2,25.3-18.2s1.8,0,2.7-.1c.2,0,.5,0,.8,0,3.4-.5,6.7-1.6,9.5-3.4,1.9-1.2,3.6-2.6,5.1-4.3.3-.3.6-.7.8-1,.2-.2.3-.4.5-.6.2-.3.4-.5.6-.8,1.4-2.1,2.5-4.4,3.2-7,1.2-4.6.9-9.2-.7-13.2h0ZM146.9,103.9c.3.3.6.5.8.8M89.4,137.2h-4.7c-.5,0-1.1,0-1.6,0M1.5,69.3c.3.8.7,1.6,1.1,2.3.3.5.5,1,.9,1.5.2.2.3.5.5.7.2.2.3.5.5.7.5.6,1,1.2,1.6,1.8.2.2.4.4.7.7,0,0,0,0,.1.1.2.2.5.4.7.6.2.2.4.4.7.6,0,0,.2.1.3.2.2.2.5.3.7.5s.5.3.7.5c.1,0,.3.2.4.2.5.3.9.6,1.4.8.2,0,.4.2.6.3.3.1.6.3.9.4.8.3,1.7.6,2.5.8h0c.3,0,.7.2,1.1.2,1.4.3,2.8.4,4.3.4s.5,0,.7,0c.5,0,1,0,1.6,0,.3,0,.6,0,.9-.1.3,0,.6,0,.9-.2,8-1.6,14.5-7.8,16.6-15.9l.8-3,.5-1.7c4-14.3,7.2-17.6,21.3-18,1.2,0,2.6,0,4,0h2.3c9.8-.7,18.2-7.5,20.8-17.1.5-1.9.7-3.7.7-5.5C92.1,9.8,82.9,0,70.9,0s-18,6.4-20.5,15.7l-.9,3.5-.4,1.6c-4.4,15.8-7.8,18.2-25.3,18.2s-1.8,0-2.7.2c-.2,0-.5,0-.8,0-3.4.5-6.7,1.7-9.5,3.4-1.9,1.2-3.6,2.6-5.1,4.3-.3.3-.6.7-.8,1-.2.2-.3.4-.5.6-.2.3-.4.5-.5.8-1.4,2.1-2.5,4.4-3.2,7-1.2,4.6-.9,9.2.7,13.2h0ZM6.8,77.2c-.3-.3-.6-.5-.8-.8M64.3,43.8h4.7c.5,0,1.1,0,1.6,0"/>
</svg>
